<svg width="28" height="30" viewBox="0 0 28 30" fill="none" xmlns="http://www.w3.org/2000/svg">
<path d="M23.723 12.4858V9.98862C23.723 4.47206 19.2509 0 13.7344 0C8.21779 0 3.74573 4.47206 3.74573 9.98862V12.4858C3.68375 14.0253 2.98397 15.4697 1.81418 16.4725C0.774363 17.3585 0.12309 18.6167 0 19.9772C0 23.0987 5.13415 24.9716 13.7344 24.9716C22.3346 24.9716 27.4687 23.0987 27.4687 19.9772C27.3456 18.6167 26.6943 17.3585 25.6545 16.4725C24.4847 15.4697 23.785 14.0253 23.723 12.4858Z" fill="#172B4D"/>
<path d="M10.168 27.3438C10.6564 28.9017 12.0999 29.962 13.7327 29.962C15.3654 29.962 16.8089 28.9017 17.2973 27.3438C16.1811 27.4262 14.995 27.4686 13.7327 27.4686C12.4703 27.4686 11.2842 27.4287 10.168 27.3438Z" fill="#172B4D"/>
</svg>
