<svg width="23" height="23" viewBox="0 0 23 23" fill="none" xmlns="http://www.w3.org/2000/svg">
<path d="M15.6141 2.19758C15.7938 2.01792 16.0376 1.91699 16.2917 1.91699C16.5458 1.91699 16.7895 2.01792 16.9692 2.19758L20.8025 6.03091C20.9822 6.21063 21.0831 6.45434 21.0831 6.70845C21.0831 6.96257 20.9822 7.20628 20.8025 7.386L8.34421 19.8443C8.16453 20.0241 7.92081 20.1251 7.66667 20.1251H3.83333C3.57917 20.1251 3.33541 20.0242 3.15569 19.8444C2.97597 19.6647 2.875 19.421 2.875 19.1668V15.3335C2.87505 15.0793 2.97606 14.8356 3.15579 14.6559L12.7391 5.07258L15.6141 2.19758ZM13.4167 7.1052L4.79167 15.7302V18.2085H7.26992L15.8949 9.58345L13.4167 7.1052ZM17.25 8.22837L18.7699 6.70845L16.2917 4.2302L14.7718 5.75012L17.25 8.22837Z" fill="#1565D8" fill-opacity="0.76"/>
</svg>
