<svg width="36" height="36" viewBox="0 0 36 36" fill="none" xmlns="http://www.w3.org/2000/svg">
<path fill-rule="evenodd" clip-rule="evenodd" d="M25.5 10.5C25.5 8.01472 23.4853 6 21 6H15C12.5147 6 10.5 8.01472 10.5 10.5H9C6.51472 10.5 4.5 12.5147 4.5 15V27C4.5 29.4853 6.51472 31.5 9 31.5H27C29.4853 31.5 31.5 29.4853 31.5 27V15C31.5 12.5147 29.4853 10.5 27 10.5H25.5ZM21 9H15C14.1716 9 13.5 9.67158 13.5 10.5H22.5C22.5 9.67158 21.8284 9 21 9ZM9 13.5H27C27.8284 13.5 28.5 14.1716 28.5 15V27C28.5 27.8284 27.8284 28.5 27 28.5H9C8.17158 28.5 7.5 27.8284 7.5 27V15C7.5 14.1716 8.17158 13.5 9 13.5Z" fill="#75797B"/>
</svg>
