<svg width="29" height="29" viewBox="0 0 29 29" fill="none" xmlns="http://www.w3.org/2000/svg">
<path d="M23.622 13.2882C23.0722 12.0507 22.2729 10.9401 21.2742 10.0257L20.4501 9.2695C20.4221 9.24453 20.3884 9.22681 20.352 9.21789C20.3156 9.20898 20.2775 9.20914 20.2412 9.21837C20.2048 9.2276 20.1713 9.24561 20.1435 9.27081C20.1158 9.29602 20.0946 9.32766 20.0819 9.36296L19.7138 10.4193C19.4844 11.082 19.0624 11.7589 18.4648 12.4244C18.4252 12.4669 18.3799 12.4782 18.3487 12.481C18.3176 12.4839 18.2694 12.4782 18.227 12.4385C18.1873 12.4046 18.1675 12.3536 18.1703 12.3026C18.2751 10.5977 17.7653 8.67477 16.6495 6.5819C15.7263 4.84303 14.4434 3.48649 12.8404 2.54059L11.6708 1.85241C11.5179 1.76178 11.3225 1.88073 11.331 2.05915L11.3933 3.41852C11.4357 4.34743 11.3281 5.16872 11.0732 5.85124C10.7617 6.68669 10.3143 7.46266 9.74219 8.15934C9.34407 8.64352 8.89284 9.08145 8.39697 9.46491C7.20272 10.383 6.23164 11.5593 5.55645 12.9058C4.88291 14.2641 4.53207 15.7595 4.53125 17.2757C4.53125 18.6124 4.79463 19.9066 5.31572 21.1272C5.81888 22.3024 6.54499 23.369 7.45391 24.2679C8.37148 25.1742 9.43633 25.8879 10.6229 26.3835C11.8521 26.8989 13.1548 27.1594 14.5 27.1594C15.8452 27.1594 17.148 26.8989 18.3771 26.3863C19.5608 25.8936 20.6371 25.175 21.5461 24.2708C22.4637 23.3645 23.183 22.3053 23.6843 21.13C24.2046 19.9128 24.4715 18.6023 24.4688 17.2785C24.4688 15.8965 24.1855 14.5541 23.622 13.2882ZM20.1924 22.8972C18.6716 24.4039 16.6523 25.2308 14.5 25.2308C12.3477 25.2308 10.3284 24.4039 8.80762 22.8972C7.29248 21.3934 6.45703 19.3997 6.45703 17.2785C6.45703 16.0465 6.73457 14.8656 7.28115 13.7668C7.81357 12.6934 8.60654 11.7334 9.56943 10.9942C10.1835 10.5246 10.7405 9.98476 11.229 9.38561C11.937 8.52184 12.4921 7.55895 12.8772 6.52526C13.0352 6.09886 13.15 5.65769 13.2199 5.20837C13.9024 5.83708 14.4745 6.59606 14.9531 7.48532C15.899 9.25817 16.3352 10.8356 16.2502 12.178C16.2299 12.4942 16.2815 12.8108 16.4012 13.1041C16.5209 13.3975 16.7055 13.6598 16.9412 13.8715C17.1455 14.056 17.3843 14.1981 17.6439 14.2895C17.9036 14.3809 18.1787 14.4198 18.4535 14.404C19.0114 14.3757 19.524 14.1293 19.8979 13.713C20.2745 13.291 20.6002 12.8605 20.8721 12.4215C21.2686 12.9285 21.5999 13.4807 21.8633 14.0755C22.3136 15.0893 22.543 16.1683 22.543 17.2785C22.543 19.3997 21.7075 21.3963 20.1924 22.8972Z" fill="#75797B"/>
</svg>
