<svg width="25" height="17" viewBox="0 0 25 17" fill="none" xmlns="http://www.w3.org/2000/svg">
<g clip-path="url(#clip0_15660_1494)">
<path d="M16.1401 -0.000367668C17.4146 0.000187467 18.6727 0.287349 19.8212 0.839866C20.9698 1.39238 21.9794 2.19611 22.7753 3.19156C23.5712 4.18701 24.133 5.34871 24.4193 6.59067C24.7055 7.83263 24.7088 9.12306 24.4289 10.3665C24.149 11.6099 23.593 12.7744 22.8022 13.7739C22.0113 14.7734 21.0058 15.5822 19.8601 16.1406C18.7144 16.6989 17.4578 16.9925 16.1833 16.9995C14.9088 17.0065 13.6491 16.7269 12.4973 16.1812C11.2017 16.7947 9.772 17.0706 8.34118 16.9832C6.91036 16.8958 5.52488 16.448 4.3136 15.6814C3.10233 14.9147 2.10462 13.8542 1.41327 12.5985C0.721913 11.3427 0.359375 9.93251 0.359375 8.49902C0.359375 7.06554 0.721913 5.65533 1.41327 4.39958C2.10462 3.14382 3.10233 2.08331 4.3136 1.31669C5.52488 0.550063 6.91036 0.102228 8.34118 0.0148357C9.772 -0.0725561 11.2017 0.203335 12.4973 0.816847C13.636 0.277842 14.8803 -0.0012955 16.1401 -0.000367668ZM8.85439 2.4282C8.00624 2.4294 7.16775 2.60828 6.39295 2.95333C5.61816 3.29838 4.92425 3.80193 4.35595 4.43154C3.78766 5.06114 3.35758 5.80284 3.09344 6.60881C2.8293 7.41479 2.73696 8.26716 2.82237 9.111C2.90778 9.95485 3.16904 10.7714 3.58931 11.5081C4.00959 12.2448 4.57956 12.8853 5.26249 13.3883C5.94541 13.8913 6.72614 14.2456 7.55436 14.4284C8.38258 14.6112 9.23992 14.6184 10.0711 14.4496C8.5099 12.8631 7.63652 10.7255 7.64011 8.49963C7.64011 6.18399 8.56661 4.08327 10.0687 2.54963C9.66902 2.46848 9.26221 2.4278 8.85439 2.4282ZM16.1401 2.4282C14.5299 2.4282 12.9856 3.06787 11.847 4.20648C10.7083 5.3451 10.0687 6.88939 10.0687 8.49963C10.0687 10.1099 10.7083 11.6542 11.847 12.7928C12.9856 13.9314 14.5299 14.5711 16.1401 14.5711C17.7504 14.5711 19.2946 13.9314 20.4333 12.7928C21.5719 11.6542 22.2115 10.1099 22.2115 8.49963C22.2115 6.88939 21.5719 5.3451 20.4333 4.20648C19.2946 3.06787 17.7504 2.4282 16.1401 2.4282Z" fill="#9747FF"/>
</g>
<defs>
<clipPath id="clip0_15660_1494">
<rect width="24.2857" height="17" fill="white" transform="translate(0.355469)"/>
</clipPath>
</defs>
</svg>
