<svg width="32" height="32" viewBox="0 0 32 32" fill="none" xmlns="http://www.w3.org/2000/svg">
<g clip-path="url(#clip0_15478_647)">
<path fill-rule="evenodd" clip-rule="evenodd" d="M31.1267 9.99731C30.4475 9.38468 29.5793 9.02284 28.666 8.97191C27.7528 8.92097 26.8497 9.18401 26.1067 9.71731C25.4859 10.2722 25.0132 10.9729 24.731 11.7562C24.4489 12.5395 24.3663 13.3807 24.4907 14.204C24.44 14.338 24.363 14.4604 24.264 14.564C23.6227 13.924 23.5027 13.6706 23.168 13.4706C22.8029 13.286 22.4048 13.1755 21.9967 13.1458C21.5886 13.116 21.1787 13.1675 20.7907 13.2973C20.4242 13.426 20.1196 13.6877 19.9373 14.0306C19.1161 14.375 18.4438 14.9996 18.04 15.7933C17.44 17.2626 18.3733 18.464 19.1893 19.6653C19.5902 20.2618 20.0351 20.8226 20.524 21.348C21.8919 22.5302 23.5146 23.3803 25.2653 23.832C25.6716 23.8542 26.0771 23.7772 26.4469 23.6076C26.8168 23.438 27.1397 23.181 27.388 22.8586C28.2427 21.8826 29.3373 20.4133 28.9773 19.2253C28.364 17.1426 26.44 17.0613 27.148 18.1173C27.508 18.5066 27.7933 18.9586 27.988 19.452C28.0069 19.5845 27.9979 19.7195 27.9616 19.8483C27.9252 19.9771 27.8623 20.0969 27.777 20.2C27.6916 20.3031 27.5856 20.3872 27.4658 20.4469C27.346 20.5066 27.215 20.5406 27.0813 20.5466C25.9587 20.6666 22.7413 18.2506 21.74 16.3013C21.4056 15.8555 21.1647 15.3466 21.032 14.8053C21.032 13.9906 22.3667 13.964 22.848 14.192L23.836 15.0986C23.396 15.5386 22.808 16.1133 23.2093 16.4346C23.2834 16.504 23.3812 16.5426 23.4827 16.5426C23.5842 16.5426 23.6819 16.504 23.756 16.4346C23.956 15.888 25.172 15.2453 25.5053 14.4173C25.8387 13.5893 25.2387 12.7893 26.412 11.28C26.8593 10.7491 27.4957 10.4132 28.1863 10.3435C28.877 10.2738 29.5677 10.4758 30.112 10.9066C31.2747 12.1333 30.672 15.112 28.7773 15.5266C28.056 15.7 27.4413 15.5266 26.7733 16.06C26.4524 16.3622 26.168 16.696 25.92 17.0613C25.532 17.5826 25.064 18.0373 25.6253 18.2773C26.1853 18.5173 26.2387 18.144 26.6533 17.6506C26.8676 17.3591 27.1124 17.096 27.388 16.8613C27.8147 16.568 28.4027 16.8613 29.244 16.608C29.8662 16.3686 30.4242 15.9878 30.8739 15.4957C31.3236 15.0036 31.6528 14.4137 31.8354 13.7726C32.018 13.1314 32.049 12.4566 31.926 11.8014C31.803 11.1462 31.5294 10.5286 31.1267 9.99731ZM22.1533 19.3453C23.1413 20.2933 25.3187 21.856 26.8813 21.8026C26.4133 22.3226 25.8787 22.804 25.2253 22.5893C23.2205 21.9227 21.5078 20.5835 20.3773 18.7986C19.9133 18.3037 19.5141 17.7517 19.1893 17.156C19.042 16.8667 18.9948 16.5367 19.0551 16.2177C19.1154 15.8988 19.2799 15.6088 19.5227 15.3933L19.736 15.22C20.1286 16.8103 20.9673 18.2554 22.1533 19.3853V19.3453ZM16.8533 28.8C15.4855 29.3284 14.0594 29.6914 12.6053 29.8813C11.1107 30.0413 9.93467 30.388 9.14667 30.3746C9.05333 30.3746 8.94667 30.2813 8.90667 30.308C7.104 26.5706 0.948 6.97998 0.733333 6.61998C0.695143 6.55105 0.637446 6.49494 0.567482 6.45869C0.497519 6.42244 0.418406 6.40766 0.340073 6.4162C0.261739 6.42475 0.187674 6.45624 0.127173 6.50672C0.0666724 6.55721 0.0224305 6.62444 0 6.69998C0 6.81998 2.964 17.876 3.29867 19.012C4.50853 23.0884 6.0079 27.0732 7.78533 30.936C8.50533 32.272 10.5893 31.2826 12.752 30.936C14.2516 30.6506 15.7158 30.2031 17.1187 29.6013C17.1888 29.543 17.2397 29.4649 17.2648 29.3771C17.2898 29.2894 17.2878 29.1961 17.259 29.1096C17.2302 29.023 17.1759 28.9472 17.1033 28.8919C17.0307 28.8367 16.9431 28.8046 16.852 28.8M1.188 5.76531C5.09623 4.31249 9.11555 3.17813 13.2067 2.37331C14.4419 2.09762 15.6961 1.91489 16.9587 1.82665C16.7853 3.15998 15.8373 6.96665 17.7733 7.16665C19.6167 7.09267 21.3694 6.3472 22.7013 5.07065C23.1547 7.11331 22.9147 6.17865 23.7693 9.29065C23.809 9.37915 23.8795 9.45023 23.9677 9.49064C24.0558 9.53105 24.1557 9.53805 24.2487 9.51032C24.3416 9.4826 24.4213 9.42205 24.4729 9.33994C24.5246 9.25783 24.5446 9.15976 24.5293 9.06398C24.156 7.5278 23.8711 5.97146 23.676 4.40265C23.5293 3.37465 18.6813 0.169312 16.5987 0.397312C10.416 0.930646 5.008 3.38665 0.826667 4.95065C0.770188 4.97218 0.718684 5.00499 0.675294 5.04707C0.631903 5.08916 0.597534 5.13963 0.574279 5.19543C0.551025 5.25122 0.539373 5.31117 0.540032 5.37161C0.540691 5.43205 0.553648 5.49173 0.578113 5.547C0.602578 5.60227 0.63804 5.65199 0.682338 5.69312C0.726636 5.73424 0.778843 5.76592 0.835778 5.78622C0.892713 5.80652 0.953185 5.81502 1.01351 5.81119C1.07384 5.80737 1.13275 5.79131 1.18667 5.76398M22.0987 4.26798C21.5387 5.05465 19.188 5.60265 18.0933 5.60265C17.9152 4.40504 17.8394 3.19445 17.8667 1.98398C19.3681 2.56365 20.79 3.33108 22.0987 4.26798Z" fill="#020202"/>
<path fill-rule="evenodd" clip-rule="evenodd" d="M29.7777 23.859C29.0177 23.859 29.8977 24.967 28.5631 27.4243L24.6497 25.8883C24.2897 25.755 24.4897 25.715 20.2564 28.4923C19.8503 27.2684 19.3735 26.069 18.8284 24.9003C18.2804 24.1537 16.3844 24.7803 13.7004 25.2737C15.6231 22.4443 15.9564 22.0297 15.3964 21.5097C14.8351 20.9883 11.8977 19.1723 11.5897 18.7043C11.9231 18.5443 12.5111 18.291 13.0991 18.051C14.7551 17.3963 14.9551 17.5563 15.0751 17.075C15.1951 16.595 14.7817 14.4043 14.8751 13.603C15.0351 13.603 14.7284 13.5097 16.9844 14.0043C17.0998 14.0156 17.2151 13.9813 17.3056 13.9087C17.396 13.836 17.4544 13.7309 17.4684 13.6158C17.4823 13.5006 17.4506 13.3846 17.3801 13.2925C17.3096 13.2004 17.2059 13.1396 17.0911 13.123C16.4111 13.0297 14.5817 12.1617 14.1004 12.8963C13.8692 14.1023 13.8332 15.3376 13.9937 16.555C12.9831 16.8537 11.9951 17.2141 11.0297 17.6363C10.6297 17.8363 10.1617 17.903 10.0417 18.383C9.92174 18.863 10.4151 19.399 10.8417 19.719C11.2697 20.039 13.1524 21.5083 14.0071 22.1497C13.1576 23.2778 12.3685 24.4501 11.6431 25.6617C11.5507 25.8409 11.5282 26.048 11.58 26.2429C11.6317 26.4378 11.754 26.6065 11.9231 26.7163C12.5431 26.9563 13.2284 26.9563 13.8471 26.7163C14.6604 26.5697 16.8111 26.0763 17.8524 25.9963C18.9217 28.1323 19.1884 30.803 20.4164 30.0017L24.6097 26.9843L28.6164 28.3857C28.717 28.4238 28.8276 28.4261 28.9297 28.3921C29.0317 28.3581 29.1189 28.2899 29.1764 28.199C29.8784 26.9823 30.2339 25.5967 30.2044 24.1923C30.1911 24.092 30.1389 24.0008 30.0592 23.9385C29.9794 23.8762 29.8783 23.8476 29.7777 23.859Z" fill="#0C6FFF"/>
<path fill-rule="evenodd" clip-rule="evenodd" d="M13.3535 7.1796C13.4627 7.14942 13.5563 7.0786 13.6151 6.98164C13.6738 6.88469 13.6932 6.76894 13.6693 6.65813C13.6455 6.54732 13.5801 6.44983 13.4867 6.38565C13.3933 6.32147 13.2788 6.29545 13.1668 6.31293C10.3978 6.81678 7.74513 7.82604 5.34148 9.29026C5.28872 9.3028 5.23912 9.3261 5.1958 9.35872C5.15248 9.39134 5.11637 9.43257 5.08975 9.4798C5.06312 9.52705 5.04655 9.57928 5.04107 9.63323C5.0356 9.68718 5.04134 9.74168 5.05793 9.79331C5.07453 9.84493 5.10162 9.89257 5.1375 9.93323C5.17338 9.97388 5.21729 10.0067 5.26645 10.0296C5.31562 10.0524 5.36898 10.0649 5.4232 10.0662C5.47741 10.0674 5.5313 10.0575 5.58148 10.0369C9.88148 9.13026 11.3228 7.79426 13.3535 7.1796ZM8.42681 13.6436C9.47102 13.5574 10.4899 13.2765 11.4308 12.8156C12.0601 12.4209 12.7508 12.1316 13.4735 11.9609C13.5795 11.9435 13.676 11.8889 13.7455 11.807C13.8151 11.7251 13.8533 11.6211 13.8533 11.5136C13.8533 11.4061 13.8151 11.3021 13.7455 11.2202C13.676 11.1382 13.5795 11.0837 13.4735 11.0663C12.8811 11.0158 12.2844 11.0699 11.7108 11.2263C10.9266 11.4065 10.1653 11.6749 9.44148 12.0263C9.77481 11.9063 7.29081 12.9356 7.23748 13.0423C6.94415 13.7356 7.70415 13.7769 8.42681 13.6436Z" fill="#020202"/>
</g>
<defs>
<clipPath id="clip0_15478_647">
<rect width="32" height="32" fill="white"/>
</clipPath>
</defs>
</svg>
